<svg xmlns="http://www.w3.org/2000/svg" viewBox="0 0 30 41.4112">
  <path fill="#89c29b" d="m28.4521 27.1758h.4844a4.5242 4.5242 0 0 1 -4.1982 4.6518s-3.43.3384-4.9551-2.0722l-2.3076-3.6792c-1.5 4.7788-9.6289 8.6269-13.792 2.9179-4.043-5.6245 1.0889-10.6992 4.3476-12.602l.3135.4648a7.3329 7.3329 0 0 0 -1.4082 10.5731c2.4785 3.1289 7.999 3.0444 10.1875-1.9033l-8.8047-13.7025c-3.8408-5.6665-1.6474-10.8681 2.8799-11.6714 2.668-.5078 4.5869.2954 5.7676 1.7339l-.49.38a4.1351 4.1351 0 0 0 -4.5686-1.2686c-2.5166.9731-3.0693 4.6523-1.1924 7.6547l11.7742 18.5655a3.9693 3.9693 0 0 0 3.1446 1.9453c1.2892 0 2.5881-.5078 2.8175-1.9878zm-7.8421-7.0625c-.0391-.0845-.2745-.4229-.3135-.5078a5.9141 5.9141 0 0 1 3.6357-2.6641 2.85 2.85 0 0 1 2.49.4229 2.1608 2.1608 0 0 1 .1835 3.0449 1.9839 1.9839 0 0 1 -2.9043.2114 1.8629 1.8629 0 0 1 -.6982-1.395c.0144-.7192-1.2386-.5498-2.3932.8877z"/>
</svg>
